<svg width="30" height="30" viewBox="0 0 30 30" fill="none" xmlns="http://www.w3.org/2000/svg">
<path d="M7.5 3.75V24.225L13.2431 19.6294C13.7418 19.2305 14.3614 19.0131 15 19.0131C15.6386 19.0131 16.2582 19.2305 16.7569 19.6294L22.5 24.2231V3.75H7.5ZM6.5625 1.875H23.4375C23.6861 1.875 23.9246 1.97377 24.1004 2.14959C24.2762 2.3254 24.375 2.56386 24.375 2.8125V26.175C24.3747 26.3514 24.3247 26.5242 24.2307 26.6734C24.1367 26.8227 24.0024 26.9424 23.8434 27.0187C23.6844 27.0951 23.507 27.1251 23.3317 27.1052C23.1565 27.0853 22.9904 27.0163 22.8525 26.9062L15.585 21.0938C15.4189 20.9611 15.2126 20.8888 15 20.8888C14.7874 20.8888 14.5811 20.9611 14.415 21.0938L7.1475 26.9062C7.00965 27.0163 6.84354 27.0853 6.66825 27.1052C6.49297 27.1251 6.31563 27.0951 6.15661 27.0187C5.99759 26.9424 5.86335 26.8227 5.76931 26.6734C5.67527 26.5242 5.62525 26.3514 5.625 26.175V2.8125C5.625 2.56386 5.72377 2.3254 5.89959 2.14959C6.0754 1.97377 6.31386 1.875 6.5625 1.875Z" fill="#F8F8F8"/>
</svg>
